<svg xmlns="http://www.w3.org/2000/svg" width="38.417" height="30.417" viewBox="0 0 38.417 30.417">
  <g id="Group_106" data-name="Group 106" transform="translate(-917.583 -86.292)">
    <g id="Group_103" data-name="Group 103" transform="translate(917.583 86.292)">
      <path id="Path_90" data-name="Path 90" d="M43.5,10.042H8.921A1.757,1.757,0,0,1,7,8.521,1.757,1.757,0,0,1,8.921,7H43.5a1.757,1.757,0,0,1,1.921,1.521A1.757,1.757,0,0,1,43.5,10.042Z" transform="translate(-7 -7)"/>
    </g>
    <g id="Group_104" data-name="Group 104" transform="translate(917.583 99.979)">
      <path id="Path_91" data-name="Path 91" d="M43.5,14.542H8.921A1.757,1.757,0,0,1,7,13.021,1.757,1.757,0,0,1,8.921,11.5H43.5a1.757,1.757,0,0,1,1.921,1.521A1.757,1.757,0,0,1,43.5,14.542Z" transform="translate(-7 -11.5)"/>
    </g>
    <g id="Group_105" data-name="Group 105" transform="translate(917.583 113.667)">
      <path id="Path_92" data-name="Path 92" d="M43.5,19.042H8.921A1.757,1.757,0,0,1,7,17.521,1.757,1.757,0,0,1,8.921,16H43.5a1.757,1.757,0,0,1,1.921,1.521A1.757,1.757,0,0,1,43.5,19.042Z" transform="translate(-7 -16)"/>
    </g>
  </g>
</svg>
